HIERARCHY
ROOT Hips
{
	OFFSET -0.001795 -0.223333 0.028219
	CHANNELS 6 Xposition Yposition Zposition Zrotation Yrotation Xrotation 
	JOINT LeftUpLeg
	{
		OFFSET 0.069520 -0.091406 -0.006815
		CHANNELS 3 Zrotation Yrotation Xrotation
		JOINT LeftLeg
		{
			OFFSET 0.034277 -0.375199 -0.004496
			CHANNELS 3 Zrotation Yrotation Xrotation
			JOINT LeftFoot
			{
				OFFSET -0.013596 -0.397961 -0.043693
				CHANNELS 3 Zrotation Yrotation Xrotation
				JOINT LeftToe
				{
					OFFSET 0.026358 -0.055791 0.119288
					CHANNELS 3 Zrotation Yrotation Xrotation
					End Site
					{
						OFFSET 0.000000 0.000000 0.000000
					}
				}
			}
		}
	}
	JOINT RightUpLeg
	{
		OFFSET -0.067670 -0.090522 -0.004320
		CHANNELS 3 Zrotation Yrotation Xrotation
		JOINT RightLeg
		{
			OFFSET -0.038290 -0.382569 -0.008850
			CHANNELS 3 Zrotation Yrotation Xrotation
			JOINT RightFoot
			{
				OFFSET 0.015774 -0.398415 -0.042312
				CHANNELS 3 Zrotation Yrotation Xrotation
				JOINT RightToe
				{
					OFFSET -0.025372 -0.048144 0.123348
					CHANNELS 3 Zrotation Yrotation Xrotation
					End Site
					{
						OFFSET 0.000000 0.000000 0.000000
					}
				}
			}
		}
	}
	JOINT Spine
	{
		OFFSET -0.002533 0.108963 -0.026696
		CHANNELS 3 Zrotation Yrotation Xrotation
		JOINT Spine1
		{
			OFFSET 0.005487 0.135180 0.001092
			CHANNELS 3 Zrotation Yrotation Xrotation
			JOINT Spine2
			{
				OFFSET 0.001457 0.052922 0.025425
				CHANNELS 3 Zrotation Yrotation Xrotation
				JOINT Neck
				{
					OFFSET -0.002778 0.213870 -0.042857
					CHANNELS 3 Zrotation Yrotation Xrotation
					JOINT Head
					{
						OFFSET 0.005152 0.064970 0.051349
						CHANNELS 3 Zrotation Yrotation Xrotation
						End Site
						{
							OFFSET 0.000000 0.000000 0.000000
						}
					}
				}
				JOINT LeftShoulder
				{
					OFFSET 0.078845 0.121749 -0.034090
					CHANNELS 3 Zrotation Yrotation Xrotation
					JOINT LeftArm
					{
						OFFSET 0.090977 0.030469 -0.008868
						CHANNELS 3 Zrotation Yrotation Xrotation
						JOINT LeftForeArm
						{
							OFFSET 0.259612 -0.012772 -0.027456
							CHANNELS 3 Zrotation Yrotation Xrotation
							JOINT LeftHand
							{
								OFFSET 0.249234 0.008986 -0.001171
								CHANNELS 3 Zrotation Yrotation Xrotation
								End Site
								{
									OFFSET 0.000000 0.000000 0.000000
								}
							}
						}
					}
				}
				JOINT RightShoulder
				{
					OFFSET -0.081759 0.118833 -0.038615
					CHANNELS 3 Zrotation Yrotation Xrotation
					JOINT RightArm
					{
						OFFSET -0.096012 0.032551 -0.009143
						CHANNELS 3 Zrotation Yrotation Xrotation
						JOINT RightForeArm
						{
							OFFSET -0.253742 -0.013329 -0.021401
							CHANNELS 3 Zrotation Yrotation Xrotation
							JOINT RightHand
							{
								OFFSET -0.255298 0.007772 -0.005559
								CHANNELS 3 Zrotation Yrotation Xrotation
								End Site
								{
									OFFSET 0.000000 0.000000 0.000000
								}
							}
						}
					}
				}
			}
		}
	}
}
MOTION
Frames: 11
Frame Time: 0.050000
0.000000 0.583827 0.000000 -5.612554 -1.119721 27.014527 22.322443 10.642310 -78.286267 -15.847705 19.102904 94.899548 11.113282 27.255369 -36.706571 0.000000 0.000000 0.000000 -18.105166 -5.093951 -93.348555 32.547803 -30.696065 79.402761 -11.914316 -36.053884 -20.356091 0.000000 0.000000 0.000000 -5.637651 2.032088 79.836075 5.935699 -0.142797 -29.749911 6.210741 11.311119 23.734750 -1.719498 2.541262 -8.130419 0.000000 0.000000 0.000000 -17.312735 -47.835272 24.348501 14.235138 -45.226601 -9.632840 18.929761 -9.249425 -0.945458 0.000000 0.000000 0.000000 -2.744262 44.967115 18.039409 -18.653361 34.015012 -6.329072 -17.490838 7.917894 -0.696321 0.000000 0.000000 0.000000 
-0.000409 0.576539 -0.002032 -6.766414 -1.171915 26.990391 22.871211 11.782534 -80.495698 -13.433143 16.677692 98.325099 11.558893 28.087967 -33.065420 0.000000 0.000000 0.000000 -17.482294 -4.557802 -96.085131 33.474712 -31.677588 79.591926 -12.845696 -35.470114 -13.950883 0.000000 0.000000 0.000000 -5.469760 1.939109 77.824291 5.434310 -0.295688 -26.614944 7.377724 9.520157 25.313885 -4.713179 4.621203 -7.813734 0.000000 0.000000 0.000000 -15.990674 -47.388286 24.020987 20.010647 -43.930292 -11.229759 19.846777 -6.365543 -0.676096 0.000000 0.000000 0.000000 -7.255495 46.820330 16.073141 -19.059678 35.923230 -6.925212 -20.742944 4.224036 -0.288891 0.000000 0.000000 0.000000 
-0.000174 0.574819 -0.005013 -6.030127 -3.045533 27.654070 21.751332 12.923748 -84.084890 -15.253148 19.888517 100.046772 12.130686 28.963065 -29.128046 0.000000 0.000000 0.000000 -18.641168 -4.545997 -97.860399 33.823221 -33.162405 81.484303 -12.521696 -34.948731 -15.682722 0.000000 0.000000 0.000000 -4.803406 2.402474 78.554423 5.881344 -0.354813 -27.180440 6.648078 8.550170 24.442755 -7.048156 6.125075 -3.599866 0.000000 0.000000 0.000000 -15.640136 -46.355487 23.586656 20.277724 -44.173066 -11.251590 19.928928 -4.799084 -0.476162 0.000000 0.000000 0.000000 -3.588256 47.321999 18.013914 -22.501640 35.462268 -7.888630 -18.434112 2.286779 0.004435 0.000000 0.000000 0.000000 
0.000237 0.578434 -0.009333 -6.718260 -3.390929 28.203627 21.838411 13.711039 -85.565697 -15.808284 20.818072 100.387418 12.540350 29.650460 -26.612515 0.000000 0.000000 0.000000 -17.842091 -3.399456 -98.434747 34.164252 -32.833072 80.263453 -12.604069 -34.908120 -14.969306 0.000000 0.000000 0.000000 -4.951709 2.775449 78.354340 4.942055 -0.265177 -26.033187 6.894687 7.228624 24.708112 -9.029453 7.602393 -3.370657 0.000000 0.000000 0.000000 -11.876696 -46.004307 22.287880 23.458220 -43.495689 -12.096069 21.984485 -1.127092 0.011147 0.000000 0.000000 0.000000 -6.229797 48.203552 16.902162 -24.348055 35.079251 -8.284134 -20.780751 1.705575 0.114507 0.000000 0.000000 0.000000 
0.000862 0.581881 -0.014888 -6.063776 -4.164046 27.836319 21.549270 13.949509 -85.807539 -18.912996 24.150008 97.539630 13.378125 32.321309 -25.371443 0.000000 0.000000 0.000000 -18.345618 -3.336782 -97.396581 33.654573 -32.032661 79.762872 -12.433040 -34.715738 -15.339988 0.000000 0.000000 0.000000 -5.219056 3.464214 79.675201 5.385776 -0.314435 -26.739657 6.395308 6.847751 25.424478 -9.032000 7.556264 -6.688556 0.000000 0.000000 0.000000 -6.995553 -46.247182 20.417420 24.343333 -41.327124 -11.523835 20.892894 -0.335431 0.055690 0.000000 0.000000 0.000000 -9.005489 48.577899 15.517584 -24.506262 34.572269 -8.065633 -20.779605 -0.049773 0.372595 0.000000 0.000000 0.000000 
0.001441 0.586267 -0.020696 -5.512698 -3.794557 27.581436 21.066167 13.328307 -86.407456 -20.603481 25.376850 95.263306 14.019743 33.438421 -22.709140 0.000000 0.000000 0.000000 -18.395255 -3.668496 -96.763162 32.532876 -30.884859 79.897064 -11.836272 -33.238701 -16.066827 0.000000 0.000000 0.000000 -4.789514 2.855132 80.257227 4.393139 -0.154663 -26.524202 6.000039 5.320987 24.787386 -9.435330 7.576986 -10.342234 0.000000 0.000000 0.000000 -3.891965 -46.645026 19.588490 24.956213 -38.980018 -10.624350 19.158137 1.030351 0.201923 0.000000 0.000000 0.000000 -12.241441 48.158746 13.751615 -23.842402 35.618212 -8.282397 -22.050729 -0.194198 0.436541 0.000000 0.000000 0.000000 
0.001900 0.589274 -0.027009 -4.751541 -3.339764 27.343641 21.247201 13.108524 -86.659587 -22.675292 26.823442 92.547711 14.128647 34.007260 -23.006173 0.000000 0.000000 0.000000 -19.070321 -4.819987 -96.376375 33.032953 -30.952493 78.858244 -12.260580 -34.366994 -15.344096 0.000000 0.000000 0.000000 -4.836102 2.564382 80.541229 4.418952 -0.125505 -26.966632 5.548902 4.735059 24.783320 -8.977619 7.119708 -12.571680 0.000000 0.000000 0.000000 -1.106896 -47.040719 18.708075 24.960996 -37.281747 -9.925301 18.049138 2.573614 0.365118 0.000000 0.000000 0.000000 -13.888008 48.363957 13.042592 -23.345979 36.020275 -8.304308 -22.266469 -1.058570 0.585447 0.000000 0.000000 0.000000 
0.001951 0.593956 -0.033338 -4.219584 -2.997676 26.900686 21.559230 13.033299 -86.525112 -24.786289 28.224570 89.907148 14.560670 35.029381 -22.079351 0.000000 0.000000 0.000000 -18.731884 -4.720419 -95.578423 31.557363 -29.539664 79.250895 -11.869353 -33.507425 -15.957801 0.000000 0.000000 0.000000 -5.413900 2.860268 80.646554 4.792258 -0.208588 -26.641777 5.474016 5.396043 23.583972 -8.454385 6.643026 -16.332784 0.000000 0.000000 0.000000 1.835281 -47.635094 17.713645 23.421557 -36.363525 -9.228873 17.836604 3.503576 0.470476 0.000000 0.000000 0.000000 -13.101271 48.839043 13.701153 -22.956292 36.528065 -8.276372 -22.963007 -2.638042 0.909349 0.000000 0.000000 0.000000 
0.001778 0.600524 -0.038892 -4.028883 -2.488201 25.867977 22.277101 12.981058 -85.369289 -26.362404 29.060224 87.653745 14.911156 35.941248 -21.572520 0.000000 0.000000 0.000000 -18.831175 -5.095535 -94.144131 31.753013 -29.213278 78.249455 -12.075919 -34.066263 -15.448096 0.000000 0.000000 0.000000 -5.617312 2.686818 80.246956 5.055123 -0.247055 -26.875914 4.995365 5.770194 23.597486 -7.688066 6.179132 -19.287478 0.000000 0.000000 0.000000 2.952425 -47.824023 17.189613 21.872501 -35.417044 -8.515851 18.231789 4.503608 0.604406 0.000000 0.000000 0.000000 -13.955622 48.901514 13.269879 -21.146888 37.946048 -8.105925 -24.096525 -3.347438 1.098837 0.000000 0.000000 0.000000 
0.001553 0.612989 -0.043252 -4.095324 -2.398580 24.394317 22.683899 12.631077 -82.881389 -27.475384 29.214737 85.163129 15.061265 35.866665 -20.257640 0.000000 0.000000 0.000000 -18.021482 -4.147852 -92.044343 30.684845 -27.593447 77.496841 -11.809497 -33.241106 -15.097419 0.000000 0.000000 0.000000 -5.978064 2.919333 79.626930 4.460884 -0.177608 -26.335460 5.168296 5.582576 22.478371 -7.083503 5.732194 -22.563050 0.000000 0.000000 0.000000 3.040415 -48.127173 17.230274 18.674890 -34.529690 -7.386649 19.506440 3.986012 0.582957 0.000000 0.000000 0.000000 -12.063110 49.084623 14.192764 -20.126156 39.381160 -8.239364 -24.989226 -3.676717 1.230783 0.000000 0.000000 0.000000 
0.001484 0.629843 -0.046419 -3.742112 -1.577432 22.960181 22.114548 10.861759 -80.034107 -27.321241 27.489116 82.076505 14.489990 35.105882 -21.623394 0.000000 0.000000 0.000000 -17.192131 -3.705353 -88.694084 29.195232 -25.324574 75.966072 -11.596946 -32.504304 -14.490494 0.000000 0.000000 0.000000 -6.029716 2.369780 78.062601 4.722769 -0.196684 -26.761773 4.712482 5.754253 22.650064 -6.274753 5.342431 -24.926008 0.000000 0.000000 0.000000 1.235940 -47.717611 17.608258 14.782595 -35.351932 -6.668026 21.823848 2.810531 0.484742 0.000000 0.000000 0.000000 -10.230483 49.009214 14.907001 -15.575164 40.870686 -7.276008 -27.562822 -2.000090 1.035229 0.000000 0.000000 0.000000 
